<?xml version="1.0" encoding="UTF-8" standalone="no"?>
<svg
   width="1000"
   height="250"
   viewBox="0 0 264.58331 66.14583"
   version="1.1"
   id="svg8"
   xmlns="http://www.w3.org/2000/svg"
   xmlns:svg="http://www.w3.org/2000/svg"
   xmlns:rdf="http://www.w3.org/1999/02/22-rdf-syntax-ns#"
   xmlns:cc="http://creativecommons.org/ns#"
   xmlns:dc="http://purl.org/dc/elements/1.1/">
  <defs
     id="defs2" />
  <metadata
     id="metadata5">
    <rdf:RDF>
      <cc:Work
         rdf:about="">
        <dc:format>image/svg+xml</dc:format>
        <dc:type
           rdf:resource="http://purl.org/dc/dcmitype/StillImage" />
      </cc:Work>
    </rdf:RDF>
  </metadata>
  <g
     transform="translate(0.01322915,2.6590624)"
     id="layer1"
     style="display:none">
    <path
       d="M 0,0 V 26.458332 M 2.6458332,0 V 26.458332 M 5.2916664,0 V 26.458332 M 7.9374996,0 V 26.458332 M 10.583333,0 V 26.458332 M 13.229166,0 V 26.458332 M 15.874999,0 V 26.458332 M 18.520832,0 V 26.458332 M 21.166666,0 V 26.458332 M 23.812499,0 V 26.458332 M 26.458332,0 V 26.458332 M 29.104165,0 V 26.458332 M 31.749998,0 V 26.458332 M 34.395832,0 V 26.458332 M 37.041665,0 V 26.458332 M 39.687498,0 V 26.458332 M 42.333331,0 V 26.458332 M 44.979164,0 V 26.458332 M 47.624998,0 V 26.458332 M 50.270831,0 V 26.458332 M 52.916664,0 V 26.458332 M 55.562497,0 V 26.458332 M 58.20833,0 V 26.458332 M 60.854164,0 V 26.458332 M 63.499997,0 V 26.458332 M 66.14583,0 V 26.458332 M 68.791663,0 V 26.458332 M 71.437496,0 V 26.458332 M 74.08333,0 V 26.458332 M 76.729163,0 V 26.458332 M 79.374996,0 V 26.458332 M 82.020829,0 V 26.458332 M 84.666662,0 V 26.458332 M 87.312496,0 V 26.458332 M 89.958329,0 V 26.458332 M 92.604162,0 V 26.458332 M 95.249995,0 V 26.458332 M 97.895828,0 V 26.458332 M 100.54166,0 V 26.458332 M 103.18749,0 V 26.458332 M 103.18749,0 V 26.458332 M 103.18749,0 V 26.458332 M 0,0 H 103.18749 M 0,2.6458332 H 103.18749 M 0,5.2916664 H 103.18749 M 0,7.9374996 H 103.18749 M 0,10.583333 H 103.18749 M 0,13.229166 H 103.18749 M 0,15.874999 H 103.18749 M 0,18.520832 H 103.18749 M 0,21.166666 H 103.18749 M 0,23.812499 H 103.18749 M 0,26.458332 h 103.18749"
       style="fill:none;stroke:#000000;stroke-width:0.0264583px"
       id="path3614" />
  </g>
  <g
     transform="translate(0.01322915,2.6590624)"
     id="layer4"
     style="display:none">
    <path
       d="M 0,0 V 26.458332 M 21.166666,0 V 26.458332 M 42.333331,0 V 26.458332 M 60.854164,0 V 26.458332 M 82.020829,0 v 26.458332"
       style="display:inline;fill:none;stroke:#000000;stroke-width:0.132292px"
       id="path3618" />
  </g>
  <g
     id="g2"
     transform="matrix(2.18162,0,0,2.18162,13.649084,12.560025)">
    <path
       id="path1648-8"
       d="m 32.014581,-1.5897495 v 3.2213028 m 5.291666,-2e-7 v -3.2213028"
       style="fill:none;stroke:#000000;stroke-width:2.51354;stroke-linecap:round;stroke-linejoin:miter;stroke-miterlimit:4;stroke-dasharray:none;stroke-opacity:1" />
    <path
       id="path1650-5"
       d="M 27.78125,0.04405332 H 41.539581"
       style="fill:none;stroke:#000000;stroke-width:2.51354;stroke-linecap:round;stroke-linejoin:miter;stroke-miterlimit:4;stroke-dasharray:none;stroke-opacity:1" />
    <path
       id="path1652-1"
       d="m 39.952081,9.6622026 -10e-7,-2.1629102 H 29.368747 l 1e-6,2.1629102"
       style="fill:none;stroke:#000000;stroke-width:2.51354;stroke-linecap:round;stroke-linejoin:round;stroke-miterlimit:4;stroke-dasharray:none;stroke-opacity:1" />
    <path
       id="path1654-2"
       d="m 31.485415,11.950301 h 6.349999"
       style="fill:none;stroke:#000000;stroke-width:2.51354;stroke-linecap:round;stroke-linejoin:miter;stroke-miterlimit:4;stroke-dasharray:none;stroke-opacity:1" />
    <path
       id="path1656-4"
       d="M 28.310415,15.146262 H 41.010414"
       style="fill:none;stroke:#000000;stroke-width:2.51354;stroke-linecap:round;stroke-linejoin:miter;stroke-miterlimit:4;stroke-dasharray:none;stroke-opacity:1" />
    <path
       id="path1658-6"
       d="m 27.25208,20.637497 c 4.050302,-1.085275 5.762888,-2.549256 7.408333,-5.291666 l 1e-6,-11.105546"
       style="fill:none;stroke:#000000;stroke-width:2.51354;stroke-linecap:round;stroke-linejoin:miter;stroke-miterlimit:4;stroke-dasharray:none;stroke-opacity:1" />
    <path
       id="path1662-7"
       d="M 23.790474,0.81577666 26.171723,3.4616101"
       style="fill:none;stroke:#000000;stroke-width:2.51354;stroke-linecap:round;stroke-linejoin:round;stroke-miterlimit:4;stroke-dasharray:none;stroke-opacity:1" />
    <path
       id="path1664-5"
       d="m 22.644035,7.3069973 2.381248,2.6458314"
       style="fill:none;stroke:#000000;stroke-width:2.51354;stroke-linecap:round;stroke-linejoin:round;stroke-miterlimit:4;stroke-dasharray:none;stroke-opacity:1" />
    <path
       id="path1666-5"
       d="m 22.644034,20.306834 c 1.392512,-1.392512 2.527486,-2.804224 2.910415,-4.233333"
       style="fill:none;stroke:#000000;stroke-width:2.51354;stroke-linecap:round;stroke-linejoin:round;stroke-miterlimit:4;stroke-dasharray:none;stroke-opacity:1" />
    <path
       id="path931-0"
       d="M 42.068748,20.637497 C 38.315561,19.631834 36.30586,18.088241 34.660415,15.345831"
       style="fill:none;stroke:#000000;stroke-width:2.51354;stroke-linecap:round;stroke-linejoin:miter;stroke-miterlimit:4;stroke-dasharray:none;stroke-opacity:1" />
    <path
       id="path1383"
       d="m 32.54375,4.240285 h 4.233331"
       style="fill:none;stroke:#000000;stroke-width:2.51354;stroke-linecap:round;stroke-linejoin:miter;stroke-miterlimit:4;stroke-dasharray:none;stroke-opacity:1" />
  </g>
  <g
     transform="matrix(2.18162,0,0,2.18162,9.8733453,2.6967704)"
     id="g3625"
     style="stroke-width:2.51354;stroke-miterlimit:4;stroke-dasharray:none">
    <path
       style="fill:none;stroke:#000000;stroke-width:2.51354;stroke-linecap:round;stroke-linejoin:round;stroke-miterlimit:4;stroke-dasharray:none;stroke-opacity:1"
       d="M 20.108332,24.870832 V 3.7041664 l -19.0499987,10e-8 V 24.870832 H 14.816665"
       id="path1602" />
    <path
       style="fill:none;stroke:#000000;stroke-width:2.51354;stroke-linecap:round;stroke-linejoin:miter;stroke-miterlimit:4;stroke-dasharray:none;stroke-opacity:1"
       d="M 4.2333331,8.2681626 H 14.772612"
       id="path1606" />
    <path
       style="fill:none;stroke:#000000;stroke-width:2.51354;stroke-linecap:round;stroke-linejoin:round;stroke-miterlimit:4;stroke-dasharray:none;stroke-opacity:1"
       d="M 16.933331,21.695833 C 13.854278,18.61678 13.185112,11.364963 13.185112,6.6145831"
       id="path1614" />
    <path
       style="fill:none;stroke:#000000;stroke-width:2.51354;stroke-linecap:round;stroke-linejoin:round;stroke-miterlimit:4;stroke-dasharray:none;stroke-opacity:1"
       d="m 12.722819,21.916364 c 2.292186,-2.292186 3.452812,-5.749291 4.210512,-8.577065"
       id="path1618" />
    <path
       style="fill:none;stroke:#000000;stroke-width:2.51354;stroke-linecap:round;stroke-linejoin:round;stroke-miterlimit:4;stroke-dasharray:none;stroke-opacity:1"
       d="M 10.25267,16.977385 V 11.707746 H 4.7624997 v 5.269639 h 2.0726134"
       id="path1620" />
    <path
       style="fill:none;stroke:#000000;stroke-width:2.51354;stroke-linecap:round;stroke-linejoin:miter;stroke-miterlimit:4;stroke-dasharray:none;stroke-opacity:1"
       d="m 16.889279,6.3940528 0.529166,0.5291666"
       id="path1" />
    <path
       style="fill:none;stroke:#000000;stroke-width:2.51354;stroke-linecap:round;stroke-linejoin:round;stroke-miterlimit:4;stroke-dasharray:none;stroke-opacity:1"
       d="M 10.495227,20.197233 4.2773864,21.16746"
       id="path3" />
  </g>
  <g
     id="g3642"
     style="stroke-width:2.51354;stroke-miterlimit:4;stroke-dasharray:none"
     transform="matrix(2.18162,0,0,2.18162,19.704842,6.7373128)">
    <g
       id="g1">
      <path
         style="fill:none;stroke:#000000;stroke-width:2.51354;stroke-linecap:round;stroke-linejoin:round;stroke-miterlimit:4;stroke-dasharray:none;stroke-opacity:1"
         d="M 42.346559,10.054166 H 60.867393"
         id="path3562" />
      <path
         style="opacity:1;fill:none;stroke:#000000;stroke-width:2.51354;stroke-linecap:round;stroke-linejoin:round;stroke-miterlimit:4;stroke-dasharray:none;stroke-opacity:1"
         d="m 51.606976,2.1166664 v 4.7624998 c -1e-6,5.2916668 -1.058334,10.5833318 -8.995833,15.8749988"
         id="path3564" />
      <path
         style="fill:none;stroke:#000000;stroke-width:2.51354;stroke-linecap:round;stroke-linejoin:round;stroke-miterlimit:4;stroke-dasharray:none;stroke-opacity:1"
         d="m 51.606976,6.8791662 c 10e-7,5.2916668 1.058333,10.5833318 8.995832,15.8749988"
         id="path3568" />
    </g>
  </g>
  <g
     style="stroke-width:2.51354;stroke-miterlimit:4;stroke-dasharray:none"
     id="g1046"
     transform="matrix(2.18162,0,0,2.18162,24.086666,9.0461923)">
    <path
       style="fill:none;stroke:#000000;stroke-width:2.51354;stroke-linecap:round;stroke-linejoin:round;stroke-miterlimit:4;stroke-dasharray:none;stroke-opacity:1"
       d="M 61.912495,1.0583556 H 80.962497"
       id="path3570" />
    <path
       style="fill:none;stroke:#000000;stroke-width:2.51354;stroke-linecap:round;stroke-linejoin:round;stroke-miterlimit:4;stroke-dasharray:none;stroke-opacity:1"
       d="M 78.845829,21.695833 V 7.4083332 H 64.029166 V 21.695833 h 9.524997"
       id="path3572" />
    <path
       style="fill:none;stroke:#000000;stroke-width:2.51354;stroke-linecap:round;stroke-linejoin:round;stroke-miterlimit:4;stroke-dasharray:none;stroke-opacity:1"
       d="M 71.437496,1.0583333 68.791663,7.4083332"
       id="path3574" />
    <path
       style="fill:none;stroke:#000000;stroke-width:2.51354;stroke-linecap:round;stroke-linejoin:round;stroke-miterlimit:4;stroke-dasharray:none;stroke-opacity:1"
       d="m 64.558333,14.816666 h 8.99583"
       id="path3576" />
  </g>
  <g
     id="g3659"
     style="stroke-width:2.51354;stroke-miterlimit:4;stroke-dasharray:none"
     transform="matrix(2.18162,0,0,2.18162,22.667427,6.1600926)">
    <path
       style="fill:none;stroke:#000000;stroke-width:2.51354;stroke-linecap:round;stroke-linejoin:round;stroke-miterlimit:4;stroke-dasharray:none;stroke-opacity:1"
       d="M 95.249995,19.049998 105.30416,16.404165"
       id="path3578" />
    <path
       style="fill:none;stroke:#000000;stroke-width:2.51354;stroke-linecap:round;stroke-linejoin:round;stroke-miterlimit:4;stroke-dasharray:none;stroke-opacity:1"
       d="M 102.65833,2.3812715 V 22.754165"
       id="path3580" />
    <path
       style="fill:none;stroke:#000000;stroke-width:2.51354;stroke-linecap:round;stroke-linejoin:round;stroke-miterlimit:4;stroke-dasharray:none;stroke-opacity:1"
       d="m 88.899989,22.754165 6e-6,-19.3145822"
       id="path3582" />
    <path
       style="fill:none;stroke:#000000;stroke-width:2.51354;stroke-linecap:round;stroke-linejoin:round;stroke-miterlimit:4;stroke-dasharray:none;stroke-opacity:1"
       d="m 85.195825,8.4666664 h 7.408337"
       id="path3584" />
    <path
       style="fill:none;stroke:#000000;stroke-width:2.51354;stroke-linecap:round;stroke-linejoin:round;stroke-miterlimit:4;stroke-dasharray:none;stroke-opacity:1"
       d="M 85.724995,4.233333 91.545828,2.6458331"
       id="path3586" />
    <path
       style="fill:none;stroke:#000000;stroke-width:2.51354;stroke-linecap:round;stroke-linejoin:round;stroke-miterlimit:4;stroke-dasharray:none;stroke-opacity:1"
       d="M 88.899995,8.4666704 84.666661,17.991665"
       id="path3588" />
    <path
       style="fill:none;stroke:#000000;stroke-width:2.51354;stroke-linecap:round;stroke-linejoin:round;stroke-miterlimit:4;stroke-dasharray:none;stroke-opacity:1"
       d="m 88.899993,11.112499 3.704169,4.233333"
       id="path3590" />
    <path
       style="fill:none;stroke:#000000;stroke-width:2.51354;stroke-linecap:round;stroke-linejoin:round;stroke-miterlimit:4;stroke-dasharray:none;stroke-opacity:1"
       d="m 96.308331,4.7624996 2.64583,2.6458335"
       id="path3592" />
    <path
       style="fill:none;stroke:#000000;stroke-width:2.51354;stroke-linecap:round;stroke-linejoin:round;stroke-miterlimit:4;stroke-dasharray:none;stroke-opacity:1"
       d="m 95.249998,11.112499 2.64583,2.645833"
       id="path3594" />
  </g>
</svg>
