<?xml version="1.0" encoding="UTF-8" standalone="no"?>
<svg xmlns:dc="http://purl.org/dc/elements/1.1/" xmlns:cc="http://creativecommons.org/ns#" xmlns:rdf="http://www.w3.org/1999/02/22-rdf-syntax-ns#" xmlns:svg="http://www.w3.org/2000/svg" xmlns="http://www.w3.org/2000/svg" viewBox="0 0 320.20001 486.66666" height="389.856811909" width="256.504431743" xml:space="preserve" id="svg2" version="1.1"><metadata id="metadata8"><rdf:RDF><cc:Work rdf:about=""><dc:format>image/svg+xml</dc:format><dc:type rdf:resource="http://purl.org/dc/dcmitype/StillImage"/></cc:Work></rdf:RDF></metadata><defs id="defs6"/><g transform="matrix(1.3333333,0,0,-1.3333333,0,486.66667)" id="g10"><g transform="scale(0.1)" id="g12"><path id="path14" style="fill:#202b5a;fill-opacity:1;fill-rule:nonzero;stroke:none" d="m 1915.65,2582.61 104.53,181.06 -181.06,104.53 -104.54,-181.06 181.07,-104.53"/><path id="path16" style="fill:#202b5a;fill-opacity:1;fill-rule:nonzero;stroke:none" d="m 1876.81,3221.1 v 0 -209.07 h 209.06 v 209.07 h -209.06"/><path id="path18" style="fill:#202b5a;fill-opacity:1;fill-rule:nonzero;stroke:none" d="m 1628.99,1515.54 247.33,142.8 -38.27,66.26 -247.33,-142.79 38.27,-66.27"/><path id="path20" style="fill:#202b5a;fill-opacity:1;fill-rule:nonzero;stroke:none" d="m 2229.58,2401.22 h 76.54 v 285.59 h -76.54 v -285.59"/><path id="path22" style="fill:#202b5a;fill-opacity:1;fill-rule:nonzero;stroke:none" d="m 2019.67,1906.22 66.27,-38.27 142.79,247.33 -66.26,38.27 -142.8,-247.33"/><path id="path24" style="fill:#202b5a;fill-opacity:1;fill-rule:nonzero;stroke:none" d="m 1448.24,1906.22 v 0 -285.6 h 76.54 v 285.6 h -76.54"/><path id="path26" style="fill:#202b5a;fill-opacity:1;fill-rule:nonzero;stroke:none" d="m 1838.91,1724.53 181.06,181.06 -104.53,104.53 -181.07,-181.06 104.54,-104.53"/><path id="path28" style="fill:#202b5a;fill-opacity:1;fill-rule:nonzero;stroke:none" d="m 1838.91,2296.89 181.06,181.06 -104.53,104.53 -181.07,-181.06 104.54,-104.53"/><path id="path30" style="fill:#202b5a;fill-opacity:1;fill-rule:nonzero;stroke:none" d="m 1733.95,2115.2 v 0 l -142.8,38.26 -66.26,-247.33 142.8,-38.26 66.26,247.33"/><path id="path32" style="fill:#202b5a;fill-opacity:1;fill-rule:nonzero;stroke:none" d="m 2163.46,2154.02 66.26,247.33 -142.79,38.27 -66.27,-247.33 142.8,-38.27"/><path id="path34" style="fill:#202b5a;fill-opacity:1;fill-rule:nonzero;stroke:none" d="m 2086.72,3012.11 -66.27,-247.33 142.8,-38.26 66.26,247.32 -142.79,38.27"/><path id="path36" style="fill:#202b5a;fill-opacity:1;fill-rule:nonzero;stroke:none" d="m 1628.99,3078.23 -38.27,-142.8 247.33,-66.27 38.27,142.8 -247.33,66.27"/><path id="path38" style="fill:#202b5a;fill-opacity:1;fill-rule:nonzero;stroke:none" d="M 810.004,3144.14 H 600.938 v -209.07 h 209.066 v 209.07"/><path id="path40" style="fill:#202b5a;fill-opacity:1;fill-rule:nonzero;stroke:none" d="M 276.234,2792.52 457.297,2897.05 352.766,3078.11 171.703,2973.58 276.234,2792.52"/><path id="path42" style="fill:#202b5a;fill-opacity:1;fill-rule:nonzero;stroke:none" d="m 1876.81,3430.06 -247.33,142.8 -38.27,-66.26 247.33,-142.8 38.27,66.26"/><path id="path44" style="fill:#202b5a;fill-opacity:1;fill-rule:nonzero;stroke:none" d="m 771.844,3572.92 -247.332,-142.79 38.265,-66.27 247.332,142.8 -38.265,66.26"/><path id="path46" style="fill:#202b5a;fill-opacity:1;fill-rule:nonzero;stroke:none" d="m 1343.86,3650 h -285.59 v -76.53 h 285.59 V 3650"/><path id="path48" style="fill:#202b5a;fill-opacity:1;fill-rule:nonzero;stroke:none" d="m 1838.91,3287.2 -247.33,-142.8 38.26,-66.26 247.33,142.79 -38.26,66.27"/><path id="path50" style="fill:#202b5a;fill-opacity:1;fill-rule:nonzero;stroke:none" d="m 1591.09,3506.8 -247.33,66.26 -38.27,-142.8 247.33,-66.26 38.27,142.8"/><path id="path52" style="fill:#202b5a;fill-opacity:1;fill-rule:nonzero;stroke:none" d="m 1095.46,3221.09 -247.331,66.26 -38.266,-142.8 247.327,-66.26 38.27,142.8"/><path id="path54" style="fill:#202b5a;fill-opacity:1;fill-rule:nonzero;stroke:none" d="m 1305.38,3221.09 v 0 l 38.27,-142.8 247.32,66.26 -38.26,142.8 -247.33,-66.26"/><path id="path56" style="fill:#202b5a;fill-opacity:1;fill-rule:nonzero;stroke:none" d="m 1057.55,3572.92 -247.327,-66.26 38.265,-142.8 247.332,66.27 -38.27,142.79"/><path id="path58" style="fill:#202b5a;fill-opacity:1;fill-rule:nonzero;stroke:none" d="m 561.926,3287.2 -247.332,-66.26 38.265,-142.8 247.332,66.27 -38.265,142.79"/><path id="path60" style="fill:#202b5a;fill-opacity:1;fill-rule:nonzero;stroke:none" d="m 524.043,2648.72 142.797,38.26 -66.266,247.33 -142.797,-38.26 66.266,-247.33"/><path id="path62" style="fill:#202b5a;fill-opacity:1;fill-rule:nonzero;stroke:none" d="m 875.863,1906.22 104.532,-181.07 181.065,104.54 -104.53,181.06 -181.067,-104.53"/><path id="path64" style="fill:#202b5a;fill-opacity:1;fill-rule:nonzero;stroke:none" d="m 1448.22,1620.51 -181.06,104.53 -104.53,-181.07 181.06,-104.53 104.53,181.07"/><path id="path66" style="fill:#202b5a;fill-opacity:1;fill-rule:nonzero;stroke:none" d="M 171.613,2687.75 H 95.082 v -285.6 h 76.531 v 285.6"/><path id="path68" style="fill:#202b5a;fill-opacity:1;fill-rule:nonzero;stroke:none" d="m 524.043,1658.4 247.328,-142.79 38.266,66.26 -247.328,142.8 -38.266,-66.27"/><path id="path70" style="fill:#202b5a;fill-opacity:1;fill-rule:nonzero;stroke:none" d="m 171.277,2115.19 142.797,-247.33 66.27,38.27 -142.801,247.33 -66.266,-38.27"/><path id="path72" style="fill:#202b5a;fill-opacity:1;fill-rule:nonzero;stroke:none" d="m 524.043,2648.72 v 0 l -247.332,142.8 -38.266,-66.27 247.332,-142.8 38.266,66.27"/><path id="path74" style="fill:#202b5a;fill-opacity:1;fill-rule:nonzero;stroke:none" d="m 381.18,2191.93 -66.266,247.33 -142.801,-37.33 66.27,-247.33 142.797,37.33"/><path id="path76" style="fill:#202b5a;fill-opacity:1;fill-rule:nonzero;stroke:none" d="m 666.887,2115.2 66.265,-247.33 142.801,38.26 -66.265,247.33 -142.801,-38.26"/><path id="path78" style="fill:#202b5a;fill-opacity:1;fill-rule:nonzero;stroke:none" d="M 666.887,2401.85 485.824,2582.92 381.293,2478.38 562.355,2297.32 666.887,2401.85"/><path id="path80" style="fill:#202b5a;fill-opacity:1;fill-rule:nonzero;stroke:none" d="M 381.18,1906.22 562.242,1725.15 666.773,1829.69 485.711,2010.75 381.18,1906.22"/><path id="path82" style="fill:#202b5a;fill-opacity:1;fill-rule:nonzero;stroke:none" d="m 875.863,1620.51 181.067,-181.07 104.53,104.53 -181.065,181.07 -104.532,-104.53"/><path id="path84" style="fill:#202b5a;fill-opacity:1;fill-rule:nonzero;stroke:none" d="m 1448.24,1906.22 -104.53,104.53 -181.06,-181.06 104.53,-104.54 181.06,181.07"/><path id="path86" style="fill:#202b5a;fill-opacity:1;fill-rule:nonzero;stroke:none" d="m 1838.91,2296.89 -104.54,-181.07 181.07,-104.53 104.53,181.07 -181.06,104.53"/><path id="path88" style="fill:#202b5a;fill-opacity:1;fill-rule:nonzero;stroke:none" d="m 1667.83,1868.31 -142.8,-247.33 66.27,-38.26 142.8,247.33 -66.27,38.26"/><path id="path90" style="fill:#202b5a;fill-opacity:1;fill-rule:nonzero;stroke:none" d="m 2019.66,2478.58 66.27,-38.26 142.79,247.33 -66.26,38.26 -142.8,-247.33"/><path id="path92" style="fill:#202b5a;fill-opacity:1;fill-rule:nonzero;stroke:none" d="m 1305.6,3430.67 h -210 v -209.06 h 209.06 v 209.06 h 0.94"/><path id="path94" style="fill:#202b5a;fill-opacity:1;fill-rule:nonzero;stroke:none" d="m 1552.93,3286.94 h 285.59 v 76.53 h -285.59 v -76.53"/><path id="path96" style="fill:#202b5a;fill-opacity:1;fill-rule:nonzero;stroke:none" d="M 848.27,3364.4 H 561.738 v -77.46 h 285.598 v 77.46 h 0.934"/><path id="path98" style="fill:#202b5a;fill-opacity:1;fill-rule:nonzero;stroke:none" d="M 666.887,2115.2 562.355,2296.26 381.293,2191.73 485.824,2010.66 666.887,2115.2"/><path id="path100" style="fill:#202b5a;fill-opacity:1;fill-rule:nonzero;stroke:none" d="m 381.18,2478.59 -142.797,247.33 -66.27,-38.27 142.801,-247.33 66.266,38.27"/><path id="path102" style="fill:#202b5a;fill-opacity:1;fill-rule:nonzero;stroke:none" d="m 666.887,1829.48 142.801,-247.33 66.265,38.27 -142.801,247.33 -66.265,-38.27"/><path id="path104" style="fill:#3a7fca;fill-opacity:1;fill-rule:nonzero;stroke:none" d="m 902.598,487.711 c 0,140.93 -113.868,254.801 -254.797,254.801 -140.934,0 -254.797,-113.871 -254.797,-254.801 0,-140.93 113.867,-254.789 254.797,-254.789 7.465,0 14.933,0 22.398,0.93 -0.933,6.527 -0.933,13.058 -0.933,20.527 0,7.473 0,14.93 0.933,22.402 -7.465,-0.929 -14.933,-0.929 -22.398,-0.929 -117.598,0 -212.797,95.199 -212.797,212.796 0,117.59 95.199,212.793 212.797,212.793 117.597,0 212.797,-95.203 212.797,-212.793 0,-94.269 -61.598,-174.539 -146.532,-201.597 -1.867,-10.27 -2.8,-20.539 -2.8,-31.742 0,-4.661 0,-8.399 0,-13.059 110.132,27.059 191.332,126.93 191.332,245.461"/><path id="path106" style="fill:#ed1e4a;fill-opacity:1;fill-rule:nonzero;stroke:none" d="m 2007.18,487.711 c 0,-140.93 -113.87,-254.789 -254.8,-254.789 -133.46,0 -242.66,102.66 -253.86,232.387 14.93,-1.86 29.86,-4.661 43.86,-9.329 14.94,-102.671 103.6,-181.07 210,-181.07 117.6,0 212.8,95.199 212.8,212.801 0,117.598 -95.2,212.801 -212.8,212.801 -112.93,0 -205.33,-87.731 -211.86,-198.801 -14,3.73 -28,5.598 -42,7.469 10.26,131.601 120.4,234.261 253.86,234.261 140,-0.929 254.8,-114.8 254.8,-255.73"/><path id="path108" style="fill:#2eaa46;fill-opacity:1;fill-rule:nonzero;stroke:none" d="m 1476.13,466.988 c 106.4,0 195.06,-78.398 209.99,-181.066 14,-4.66 28.94,-7.461 43.87,-9.332 -11.2,130.66 -120.4,232.398 -253.86,232.398 -7.47,0 -14.94,0 -22.4,-0.937 0.93,-6.531 0.93,-13.063 0.93,-20.531 0,-7.469 0,-14.93 -0.93,-22.399 7.46,0.93 14.93,1.867 22.4,1.867 m 211.86,-225.867 c -6.53,-111.062 -98.93,-198.789 -211.86,-198.789 -117.6,0 -212.8,95.188 -212.8,212.789 0,94.27 61.6,174.527 146.53,201.598 1.87,10.269 1.87,20.531 1.87,31.73 0,4.672 0,8.403 0,13.071 -110.13,-28 -190.4,-127.872 -190.4,-246.399 0,-140.93 113.87,-254.792875 254.8,-254.792875 134.4,0 243.59,103.593875 253.86,234.261875 -14.93,0.93 -28.93,2.801 -42,6.531"/><path id="path110" style="fill:#f8a91d;fill-opacity:1;fill-rule:nonzero;stroke:none" d="m 901.313,465.73 c 0.933,7.461 0.933,14.93 0.933,22.399 0,6.531 0,14 -0.933,20.531 7.468,0.93 14.933,0.93 22.402,0.93 133.465,0 242.665,-101.731 253.865,-232.391 -14.94,1.86 -29.87,4.66 -43.87,9.332 -14.93,102.66 -103.6,181.059 -209.995,181.059 -7.469,-0.93 -14.934,-0.93 -22.402,-1.86 M 1177.58,234.262 C 1167.31,102.672 1057.18,0 923.715,0 782.781,0 668.918,113.871 668.918,254.801 c 0,118.531 81.199,218.39 190.395,246.39 0,-4.66 0,-8.402 0,-13.062 0,-11.199 -0.93,-21.469 -2.797,-31.738 -84.934,-28 -146.532,-107.332 -146.532,-201.59 0,-117.602 95.2,-212.801 212.797,-212.801 112.929,0 205.329,87.73 211.859,198.801 14.94,-2.801 28.94,-5.602 42.94,-6.539"/><path id="path112" style="fill:#211c1d;fill-opacity:1;fill-rule:nonzero;stroke:none" d="m 1200.21,742.602 c -133.47,0 -243.601,-103.59 -253.866,-234.262 14,-0.93 28,-3.731 42,-7.469 6.531,111.07 98.926,198.801 211.866,198.801 117.59,0 211.86,-95.203 211.86,-212.801 0,-94.262 -61.6,-174.531 -146.53,-201.59 -1.87,-10.269 -2.8,-20.543 -2.8,-31.742 0,-4.66 0,-8.398 0,-13.059 110.13,28 190.4,127.86 190.4,246.391 1.86,141.867 -112.94,255.731 -252.93,255.731 m 0,-466.661 c -106.4,0 -195.07,78.399 -209.999,181.071 -14,4.668 -28.934,7.457 -43.867,9.328 11.199,-130.66 120.396,-232.391 253.866,-232.391 7.46,0 14.93,0 22.4,0.93 -0.94,6.531 -0.94,13.062 -0.94,20.531 0,7.469 0,14.93 0.94,22.399 -7.47,-1.868 -14.94,-1.868 -22.4,-1.868"/><path id="path114" style="fill:#202b5a;fill-opacity:1;fill-rule:nonzero;stroke:none" d="M 130.664,914.859 H 77.4648 V 1196.72 H 0 v 49.47 h 208.129 v -49.47 H 130.664 V 914.859"/><path id="path116" style="fill:#202b5a;fill-opacity:1;fill-rule:nonzero;stroke:none" d="m 800.402,914.84 h -63.464 l -79.333,142.8 -29.867,-42 v -100.8 h -53.199 v 330.4 h 53.199 v -148.4 h 0.934 l 100.797,149.33 h 60.668 L 693.07,1102.44 800.402,914.84"/><path id="path118" style="fill:#202b5a;fill-opacity:1;fill-rule:nonzero;stroke:none" d="m 979.438,914.859 h -53.2 v 142.801 l -87.73,188.53 h 55.066 l 58.797,-129.73 h 1.867 l 58.802,129.73 h 55.06 L 980.371,1057.66 V 914.859 h -0.933"/><path id="path120" style="fill:#202b5a;fill-opacity:1;fill-rule:nonzero;stroke:none" d="m 1636.82,914.859 h -185.73 v 47.602 l 0.93,0.93 123.2,158.669 c 5.6,7.46 10.27,15.86 10.27,30.8 0,27.06 -20.53,42.93 -40.13,42.93 -12.14,0 -22.4,-3.74 -29.87,-11.2 -7.47,-7.47 -12.13,-19.6 -13.07,-37.33 v -2.8 h -51.33 v 2.8 c 0,27.99 10.27,55.06 27.07,72.79 16.8,17.74 38.26,27.07 63.46,27.07 28,0 51.34,-9.33 68.14,-27.07 17.73,-17.73 26.13,-41.06 26.13,-69.06 0,-23.33 -6.53,-42 -23.33,-63.47 l -93.34,-121.329 0.94,-0.929 h 116.66 v -50.403 0"/><path id="path122" style="fill:#202b5a;fill-opacity:1;fill-rule:nonzero;stroke:none" d="m 2151.59,914.859 h -185.74 v 47.602 l 0.94,0.93 123.2,158.669 c 5.6,7.46 10.26,15.86 10.26,30.8 0,27.06 -21.46,42.93 -40.13,42.93 -12.13,0 -22.4,-3.74 -29.87,-11.2 -7.46,-7.47 -12.13,-19.6 -13.06,-37.33 v -2.8 h -51.34 v 2.8 c 0,27.99 10.27,55.06 27.07,72.79 16.8,17.74 38.27,27.07 63.47,27.07 28.93,0 51.33,-9.33 68.13,-27.07 17.73,-17.73 26.13,-41.06 26.13,-69.06 0,-23.33 -6.53,-42 -23.33,-63.47 l -93.33,-121.329 0.93,-0.929 h 116.67 v -50.403 0"/><path id="path124" style="fill:#202b5a;fill-opacity:1;fill-rule:nonzero;stroke:none" d="m 1209.78,912.672 c -60.66,0 -103.6,42 -103.6,100.798 v 136.26 c 0,58.8 42.94,99.87 103.6,99.87 61.6,0 103.6,-41.07 103.6,-99.87 v -136.26 c 0,-58.798 -43.86,-100.798 -103.6,-100.798 m 0,283.728 c -30.8,0 -53.2,-23.33 -53.2,-55.07 v -119.46 c 0,-34.53 21.47,-57.87 53.2,-57.87 31.74,0 53.2,23.34 53.2,57.87 v 119.46 c 0,32.67 -22.4,55.07 -53.2,55.07"/><path id="path126" style="fill:#202b5a;fill-opacity:1;fill-rule:nonzero;stroke:none" d="m 374.461,912.672 c -60.664,0 -103.598,42 -103.598,100.798 v 136.26 c 0,58.8 42.934,99.87 103.598,99.87 61.602,0 103.598,-41.07 103.598,-99.87 v -136.26 c 0,-58.798 -43.864,-100.798 -103.598,-100.798 m 0,283.728 c -30.797,0 -53.199,-23.33 -53.199,-55.07 v -119.46 c 0,-34.53 21.468,-57.87 53.199,-57.87 31.734,0 53.199,23.34 53.199,57.87 v 119.46 c 0,32.67 -22.398,55.07 -53.199,55.07"/><path id="path128" style="fill:#202b5a;fill-opacity:1;fill-rule:nonzero;stroke:none" d="m 1805.26,912.672 c -34.54,0 -92.4,20.527 -92.4,96.128 v 143.73 c 0,57.87 37.33,96.14 92.4,96.14 55.06,0 92.39,-38.27 92.39,-96.14 V 1008.8 c 0,-75.601 -57.86,-96.128 -92.39,-96.128 m 0,283.728 c -34.54,0 -41.07,-26.13 -41.07,-48.53 v -135.33 c 0,-32.669 14,-48.54 41.07,-48.54 28,0 41.06,15.871 41.06,48.54 v 135.33 c 0,22.4 -6.53,48.53 -41.06,48.53"/><path id="path130" style="fill:#202b5a;fill-opacity:1;fill-rule:nonzero;stroke:none" d="m 2309.06,912.672 c -34.53,0 -92.4,20.527 -92.4,96.128 v 143.73 c 0,57.87 37.34,96.14 92.4,96.14 55.07,0 92.4,-38.27 92.4,-96.14 V 1008.8 c 0,-75.601 -57.86,-96.128 -92.4,-96.128 m 0,283.728 c -34.53,0 -41.06,-26.13 -41.06,-48.53 v -135.33 c 0,-32.669 13.06,-48.54 41.06,-48.54 28,0 41.07,15.871 41.07,48.54 v 135.33 c 0,22.4 -6.53,48.53 -41.07,48.53"/><path id="path132" style="fill:#202b5a;fill-opacity:1;fill-rule:nonzero;stroke:none" d="m 2006.04,1732.54 h 24.27 v -61.6 h 8.4 v 61.6 h 24.27 v 5.6 h -56 v -5.6 h -0.94"/><path id="path134" style="fill:#202b5a;fill-opacity:1;fill-rule:nonzero;stroke:none" d="m 2121.97,1739.07 -19.6,-48.53 h -0.93 l -21.47,48.53 h -9.33 v -68.13 h 6.53 v 53.19 l 18.67,-42.93 h 8.4 l 17.73,43.87 h 0.94 V 1670 h 6.53 v 68.13 h -7.47 v 0.94"/></g></g></svg>