<?xml version="1.0" encoding="UTF-8" standalone="no"?>
<svg
   xmlns:dc="http://purl.org/dc/elements/1.1/"
   xmlns:cc="http://creativecommons.org/ns#"
   xmlns:rdf="http://www.w3.org/1999/02/22-rdf-syntax-ns#"
   xmlns:svg="http://www.w3.org/2000/svg"
   xmlns="http://www.w3.org/2000/svg"
   xmlns:sodipodi="http://sodipodi.sourceforge.net/DTD/sodipodi-0.dtd"
   xmlns:inkscape="http://www.inkscape.org/namespaces/inkscape"
   width="612.97284pt"
   height="212.82513pt"
   viewBox="0 0 612.97284 212.82513"
   fill-rule="evenodd"
   version="1.1"
   id="svg52"
   sodipodi:docname="ci.svg"
   inkscape:version="1.0.2 (e86c870879, 2021-01-15, custom)">
  <metadata
     id="metadata58">
    <rdf:RDF>
      <cc:Work
         rdf:about="">
        <dc:format>image/svg+xml</dc:format>
        <dc:type
           rdf:resource="http://purl.org/dc/dcmitype/StillImage" />
        <dc:title></dc:title>
      </cc:Work>
    </rdf:RDF>
  </metadata>
  <defs
     id="defs56" />
  <sodipodi:namedview
     pagecolor="#ffffff"
     bordercolor="#666666"
     borderopacity="1"
     objecttolerance="10"
     gridtolerance="10"
     guidetolerance="10"
     inkscape:pageopacity="0"
     inkscape:pageshadow="2"
     inkscape:window-width="1920"
     inkscape:window-height="1027"
     id="namedview54"
     showgrid="false"
     lock-margins="true"
     fit-margin-top="20"
     fit-margin-left="20"
     fit-margin-right="20"
     fit-margin-bottom="20"
     inkscape:zoom="0.78216868"
     inkscape:cx="300.76738"
     inkscape:cy="34.623755"
     inkscape:window-x="-8"
     inkscape:window-y="22"
     inkscape:window-maximized="1"
     inkscape:current-layer="svg52" />
  <g
     id="g50"
     transform="translate(4.8871373,-317.4557)">
    <g
       id="g48">
      <g
         id="g38">
        <path
           style="fill:#0079b8;stroke:none"
           d="m 168.824,446.886 c 0,0 1.22,-15.018 14.327,-22.321 11.639,-6.487 26.757,-5.625 34.076,-4.07 6.038,1.282 16.772,6.894 18.36,15.731 0.238,1.321 0.371,5.778 -4.766,6.513 -6.979,0.993 -24.787,2.785 -28.241,3.099 -4.644,0.428 -9.456,2.082 -4.991,9.578 3.953,6.631 15.915,10.553 29.587,5.202 13.668,-5.349 12.984,-9.873 16.341,-5.611 3.357,4.265 -7.307,20.327 -21.917,25.143 -14.61,4.818 -34.727,2.887 -44.381,-6.944 -9.656,-9.832 -8.395,-26.32 -8.395,-26.32 z m 24.319,-10.43 c 1.215,1.236 15.621,-0.193 18.098,-0.603 2.715,-0.449 10.958,-0.689 5.535,-5.657 -5.428,-4.965 -18.627,-1.273 -18.627,-1.273 -4.882,1.659 -6.222,6.305 -5.006,7.533 z"
           id="path2" />
        <path
           style="fill:#0079b8;stroke:none"
           d="m 155.496,426.023 c 1.72,-3.207 -1.358,-4.5 -4.821,-6.028 -2.049,-0.906 -6.989,-2.116 -13.232,-2.143 -7.74,-0.039 -16.875,2.226 -21.869,4.046 -6.23,2.277 -16.4158,7.02 -21.6321,20.244 -5.2158,13.226 -0.1675,26.295 6.0078,30.371 6.1733,4.073 22.0653,7.102 33.4313,2.601 11.363,-4.502 14.014,-10.788 16.53,-7.484 2.516,3.3 4.754,12.493 13.023,14.194 8.268,1.697 5.634,-6.545 5.024,-8.198 -0.609,-1.652 -3.516,-10.768 -3.444,-17.88 0.073,-7.112 1.399,-18.66 -3.263,-24.406 -4.666,-5.75 -12.459,4.184 -16.529,7.983 -4.074,3.806 -11.732,11.41 -20.763,11.356 -9.032,-0.051 -11.957,-2.103 -10.601,-7.481 1.354,-5.373 6.866,-9.049 11.874,-11.635 5.248,-2.705 12.418,-3.891 16.4,-4.334 5.97,-0.662 13.122,0.179 13.864,-1.206 z"
           id="path4" />
        <path
           style="fill:#00977e;stroke:none"
           d="m 499.447,424.675 c 1.718,-3.207 -1.365,-4.5 -4.825,-6.028 -2.051,-0.905 -6.99,-2.115 -13.233,-2.143 -7.736,-0.038 -16.873,2.224 -21.868,4.046 -6.229,2.276 -16.416,7.019 -21.63,20.244 -5.218,13.226 -0.169,26.296 6.006,30.372 6.177,4.072 22.063,7.102 33.428,2.6 11.365,-4.501 14.017,-10.79 16.53,-7.485 2.517,3.303 4.759,12.493 13.024,14.194 8.27,1.696 5.637,-6.543 5.027,-8.198 -0.611,-1.651 -3.519,-10.769 -3.446,-17.879 0.074,-7.112 1.398,-18.661 -3.265,-24.408 -4.663,-5.747 -12.454,4.183 -16.527,7.987 -4.072,3.803 -11.733,11.406 -20.764,11.355 -9.032,-0.054 -11.955,-2.106 -10.601,-7.48 1.357,-5.374 6.867,-9.049 11.877,-11.637 5.245,-2.708 12.416,-3.892 16.399,-4.336 5.97,-0.662 13.121,0.183 13.868,-1.204 z"
           id="path6" />
        <path
           style="fill:#0079b8;stroke:none"
           d="m 30.9658,382.221 c 6.2056,2.43 7.6636,11.073 8.2339,15.403 0.5488,4.162 2.1187,19.664 2.4634,23.231 0.3442,3.568 1.5688,11.504 10.8872,11.504 15.4609,0 16.9341,-0.816 17.1587,-6.043 0.2095,-4.897 3.8877,-30.392 9.0132,-32.893 5.4809,-2.68 9.5088,1.421 9.8393,10.507 0.3311,9.087 0.7051,59.164 0.3736,65.965 -0.3448,7.046 -1.6363,13.418 -9.8814,13.027 -7.665,-0.364 -10.0161,-6.784 -10.352,-13.783 -0.3384,-7.002 0.4668,-18.007 -3.9942,-19.195 -4.7646,-1.269 -18.1474,-0.077 -20.6396,11.054 -2.4292,10.858 -5.0381,22.718 -13.1895,24.354 -7.5893,1.523 -15.957,-0.301 -15.7622,-10.831 0.1953,-10.368 1.0884,-57.894 2.0332,-74.539 0.6597,-11.597 6.7564,-20.525 13.8164,-17.761 z"
           id="path8" />
        <path
           style="fill:#e31a3a;stroke:none"
           d="m 212.12,457.122 c 0,0 0.749,-6.747 6.074,-6.745 5.237,0.002 7.69,1.356 10.2,4.951 2.467,3.528 2.673,9.72 2.604,12.965 -0.076,3.247 -0.483,13.244 6.147,12.315 7.118,-1.003 24.811,-17.105 30.76,-26.107 5.917,-8.946 14.83,-7.073 15.37,2.4 0.283,4.93 1.465,34.452 0.944,41.237 -0.516,6.702 -4.219,9.279 -7.684,8.775 -3.469,-0.503 -6.565,-12.544 -9.145,-13.069 -2.585,-0.524 -8.381,4.139 -17.511,12.019 -9.127,7.879 -23.219,4.035 -29.253,-2.313 -5.861,-6.17 -9.129,-15.995 -9.643,-25.064 -0.514,-9.074 1.137,-21.364 1.137,-21.364 z"
           id="path10" />
        <path
           style="fill:#2c2c2b;stroke:none"
           d="m 231.34,475.02 c -0.471,-2.543 -0.375,-5.294 -0.342,-6.727 0.044,-2.201 -0.037,-5.757 -0.863,-8.917 -0.905,0.406 -1.883,0.821 -2.959,1.242 -5.675,2.22 -11.053,2.843 -15.691,2.334 -0.4,4.374 -0.787,10.458 -0.502,15.534 0.072,1.269 0.206,2.559 0.383,3.847 3.564,-0.396 7.033,-1.124 10.234,-2.183 3.525,-1.163 6.815,-2.983 9.74,-5.13 z"
           id="path12" />
        <path
           style="fill:#00977e;stroke:none"
           d="m 390.108,423.459 c 0,0 -23.936,0.462 -34.147,14.788 -10.213,14.321 -7.441,26.66 -1.893,34.7 5.542,8.038 31.783,12.256 44.311,2.522 12.522,-9.731 15.644,-8.679 17.791,-2.551 2.144,6.128 9.842,10.469 13.405,4.051 2.8,-5.041 3.521,-13.311 3.521,-26.238 0,-12.933 0.96,-52.071 -3.199,-61.684 -3.819,-8.814 -12.426,-7.193 -15.81,-2.368 -3.715,5.312 -3.327,10.192 -2.782,18.697 0.493,7.73 5.377,30.186 -9.753,42.322 -12.38,9.937 -28.754,6.252 -30.566,1.955 -1.811,-4.29 4.752,-10.704 10.567,-13.335 6.132,-2.777 19.176,-4.122 20.038,-7.313 0.853,-3.189 -1.641,-5.96 -11.483,-5.546 z"
           id="path14" />
        <path
           style="fill:#00977e;stroke:none"
           d="m 512.769,445.535 c 0,0 1.224,-15.012 14.33,-22.317 11.638,-6.486 26.754,-5.623 34.075,-4.07 6.041,1.28 16.771,6.893 18.358,15.728 0.238,1.325 0.378,5.779 -4.767,6.513 -6.979,0.995 -24.786,2.785 -28.239,3.104 -4.644,0.427 -9.458,2.08 -4.99,9.575 3.952,6.632 15.913,10.552 29.587,5.204 13.669,-5.351 12.986,-9.878 16.342,-5.61 3.355,4.261 -7.308,20.324 -21.919,25.14 -14.61,4.819 -34.731,2.89 -44.381,-6.943 -9.655,-9.832 -8.396,-26.324 -8.396,-26.324 z m 24.321,-10.426 c 1.215,1.232 15.623,-0.195 18.099,-0.604 2.717,-0.447 10.957,-0.689 5.531,-5.655 -5.426,-4.967 -18.626,-1.28 -18.626,-1.28 -4.884,1.664 -6.221,6.308 -5.004,7.539 z"
           id="path16" />
        <path
           style="fill:#f49418;stroke:none"
           d="m 362.624,475.346 c 0,0 -0.746,6.748 -6.074,6.745 -5.234,0 -8.863,-1.352 -11.374,-4.947 -2.465,-3.531 -2.67,-9.725 -2.598,-12.968 0.069,-3.246 0.478,-13.245 -6.152,-12.311 -7.119,1 -22.689,17.565 -29.583,26.103 -6.865,8.502 -14.831,7.075 -15.372,-2.401 -0.282,-4.929 -1.465,-34.451 -0.944,-41.234 0.516,-6.704 4.221,-9.28 7.684,-8.776 3.466,0.503 6.565,12.543 9.146,13.068 2.583,0.523 8.383,-4.14 17.512,-12.017 9.128,-7.878 23.219,-4.039 29.252,2.31 5.861,6.171 9.128,15.999 9.642,25.071 0.514,9.069 -1.139,21.357 -1.139,21.357 z"
           id="path18" />
        <path
           style="fill:#5c5d5e;stroke:none"
           d="m 362.624,475.346 c 0,0 1.653,-12.288 1.139,-21.357 -0.365,-6.423 -2.114,-13.217 -5.178,-18.833 -0.947,0.954 -1.832,1.975 -2.624,3.091 -10.213,14.321 -7.441,26.66 -1.893,34.7 1.42,2.06 4.205,3.865 7.756,5.254 0.652,-1.497 0.8,-2.855 0.8,-2.855 z"
           id="path20" />
        <g
           id="g36">
          <path
             style="fill:#2c2c2b;stroke:none"
             d="m 116.258,362.431 c 0,0 12.575,-5.387 20.571,2.259 8.35,7.989 -1.373,8.382 -3.958,7.023 -2.554,-1.342 -8.321,-4.401 -13.418,-0.049 -5.005,4.273 -1.285,9.869 5.506,10.607 7.013,0.766 13.214,1.8 16.138,7.038 2.975,5.331 1.133,11.143 -2.624,14.855 -3.712,3.665 -12.23,6.288 -20.343,5.29 -7.812,-0.96 -10.784,-3.396 -11.628,-4.454 -0.839,-1.049 -1.313,-5.189 1.555,-5.819 2.902,-0.639 8.357,1.233 9.947,1.347 1.605,0.116 7.638,1.393 10.733,-2.484 3.128,-3.918 0.476,-6.82 -1.791,-6.851 -1.59,-0.023 -12.561,-0.654 -16.873,-5.213 -4.207,-4.446 -4.548,-9.518 -2.758,-14.06 1.795,-4.559 6.16,-8.485 8.943,-9.489 z"
             id="path22" />
          <path
             style="fill:#2c2c2b;stroke:none"
             d="m 145.79,384.703 c 0,0 0.459,-4.39 3.185,-7.077 3.004,-2.96 6.86,-0.863 7.649,0.543 0.787,1.403 0.351,4.254 0.052,6.608 -0.281,2.187 -0.871,10.083 0.76,13.196 1.632,3.115 4.363,4.337 7.482,2.702 3.122,-1.635 5.126,-5.501 5.756,-10.077 0.634,-4.581 1.036,-9.991 2.189,-12.245 1.325,-2.581 5.123,-2.495 6.461,-2.187 1.336,0.309 3.429,1.444 3.33,5.313 -0.124,4.62 -0.209,11.625 -0.166,14.011 0.062,3.469 0.265,9.762 -0.032,11.505 -0.3,1.76 -1.744,3.544 -5.17,3.094 -2.41,-0.319 -3.736,-3.847 -4.4,-8.406 0,0 -3.745,5.669 -8.646,7.097 -4.715,1.377 -11.584,1.131 -15.732,-3.939 -4.151,-5.075 -3.284,-16.019 -2.718,-20.138 z"
             id="path24" />
          <path
             style="fill:#2c2c2b;stroke:none"
             d="m 224.727,400.746 c 0,0 0.134,4.647 -2.21,7.123 -2.843,3.003 -6.258,1.79 -7.222,0.512 -0.967,-1.279 -1.13,-4.606 -1.096,-6.78 0.039,-2.2 -0.244,-10.399 -1.821,-13.513 -1.583,-3.116 -4.235,-4.337 -7.262,-2.701 -3.027,1.634 -5.82,5.53 -6.78,10.077 -0.951,4.518 -1.547,9.774 -2.24,12.193 -0.695,2.418 -3.815,2.706 -5.114,2.397 -1.297,-0.308 -3.166,-1.604 -3.068,-5.473 0.12,-4.618 0.201,-11.626 0.159,-14.012 -0.063,-3.468 -0.322,-9.774 0.034,-11.506 0.353,-1.732 2.469,-3.805 5.741,-3.095 3.279,0.716 4.381,2.476 4.526,7.107 0,0 2.801,-4.516 7.4,-5.796 4.603,-1.277 11.239,-1.129 15.265,3.941 4.027,5.072 3.862,15.373 3.688,19.526 z"
             id="path26" />
          <path
             style="fill:#2c2c2b;stroke:none"
             d="m 314.498,384.703 c 0,0 0.462,-4.39 3.186,-7.077 3.005,-2.96 6.858,-0.863 7.651,0.543 0.789,1.403 0.351,4.254 0.05,6.608 -0.276,2.187 -0.87,10.083 0.762,13.196 1.63,3.115 4.363,4.337 7.483,2.702 3.117,-1.635 5.124,-5.501 5.754,-10.077 0.634,-4.581 1.036,-9.991 2.191,-12.245 1.322,-2.581 5.119,-2.495 6.458,-2.187 1.34,0.309 3.431,1.444 3.327,5.313 -0.122,4.62 -0.203,11.625 -0.161,14.011 0.061,3.469 0.265,9.762 -0.035,11.505 -0.303,1.76 -1.74,3.544 -5.165,3.094 -2.412,-0.319 -3.739,-3.847 -4.404,-8.406 0,0 -3.742,5.669 -8.648,7.097 -4.71,1.377 -11.579,1.131 -15.731,-3.939 -4.15,-5.075 -3.281,-16.019 -2.718,-20.138 z"
             id="path28" />
          <path
             style="fill:#2c2c2b;stroke:none"
             d="m 393.438,400.746 c 0,0 0.134,4.647 -2.211,7.123 -2.842,3.003 -6.258,1.79 -7.225,0.512 -0.964,-1.279 -1.126,-4.606 -1.091,-6.78 0.037,-2.2 -0.244,-10.399 -1.826,-13.513 -1.581,-3.116 -4.233,-4.337 -7.256,-2.701 -3.029,1.634 -5.822,5.53 -6.782,10.077 -0.95,4.518 -1.549,9.774 -2.242,12.193 -0.692,2.418 -3.814,2.706 -5.11,2.397 -1.298,-0.308 -3.168,-1.604 -3.07,-5.473 0.117,-4.618 0.198,-11.626 0.16,-14.012 -0.063,-3.468 -0.326,-9.774 0.03,-11.506 0.355,-1.732 2.469,-3.805 5.747,-3.095 3.277,0.716 4.379,2.476 4.523,7.107 0,0 2.799,-4.516 7.399,-5.796 4.603,-1.277 11.239,-1.129 15.264,3.941 4.028,5.072 3.866,15.373 3.69,19.526 z"
             id="path30" />
          <path
             style="fill:#2c2c2b;stroke:none"
             d="m 268.991,400.235 c -0.76,-0.359 -1.71,-0.844 -2.756,-1.401 1.409,-2.028 2.306,-3.921 1.627,-5.036 -1.029,-1.694 -3.499,-2.698 -5.963,-1.097 -0.793,0.514 -1.759,1.306 -2.75,2.173 -3.291,-1.895 -5.989,-3.503 -5.989,-3.503 3.587,-1.304 8.263,-4.033 8.853,-7.488 0.728,-4.264 -2.131,-7.735 -8.631,-10.154 -6.412,-2.386 -16.027,-1.934 -19.198,4.671 -2.842,5.927 2.849,10.577 4.05,11.474 -1.511,1.083 -5.334,3.868 -6.81,5.381 -1.862,1.903 -3.711,5.947 -0.795,9.773 2.914,3.823 9.252,6.606 17.627,5.148 5.355,-0.932 9.159,-2.757 11.872,-4.745 1.014,0.555 1.931,1.023 2.697,1.362 5.406,2.379 7.425,2.058 9.136,0.579 1.712,-1.476 1.599,-4.984 -2.97,-7.137 z m -24.353,-18.083 c 0.369,-2.027 1.616,-2.531 2.899,-2.436 1.287,0.095 3.339,0.327 3.178,1.683 -0.156,1.356 -0.63,3.064 -4.594,4.791 0,0 -1.854,-2.011 -1.483,-4.038 z m 0.659,20.89 c -3.975,-0.164 -4.645,-2.419 -3.897,-3.807 0.541,-1.006 1.776,-2.3 3.558,-3.431 1.922,1.328 4.638,3.156 7.487,4.99 -1.785,1.103 -4.388,2.362 -7.148,2.248 z"
             id="path32" />
          <path
             style="fill:#2c2c2b;stroke:none"
             d="m 306.067,362.688 c -4.366,0.322 -23.641,-0.08 -23.641,-0.08 0,0 -6.308,-0.771 -7.779,2.017 -1.975,3.749 0.08,6.37 2.003,7.593 0.462,0.291 1.115,0.549 1.881,0.784 -0.141,4.259 -0.629,19.805 -0.419,23.734 0.239,4.566 -0.369,12.611 3.509,14.287 3.879,1.673 7.437,-0.554 7.782,-4.142 0.251,-2.602 0.719,-10.437 0.345,-15.82 4.078,-0.068 9.926,0.09 12.849,-0.236 3.354,-0.374 7.927,-3.034 7.353,-5.673 -0.579,-2.639 -3.96,-2.827 -6.787,-2.887 -2.249,-0.045 -10.221,-0.04 -13.381,-0.033 0.214,-2.664 0.174,-5.755 0.455,-7.991 4.697,-0.116 12.057,-0.484 13.858,-0.751 2.415,-0.356 8.616,-1.678 9.139,-5.865 0.524,-4.184 -2.802,-5.256 -7.167,-4.937 z"
             id="path34" />
        </g>
      </g>
      <path
         style="fill:#e31a3a;stroke:none"
         d="m 108.237,338.681 c -1.48,0.973 -0.988,2.883 -0.99,2.92 1.147,4.198 1.501,4.754 4.217,11.211 0.559,1.189 1.117,2.121 2.211,2.773 1.146,0.575 2.723,-0.319 3.112,-1.112 0.618,-1.259 0.332,-2.487 -0.608,-4.805 0,0 -1.067,-2.492 -1.894,-4.668 -1.196,-3.148 -1.941,-4.687 -3.32,-6.102 -0.667,-0.765 -2.009,-0.631 -2.728,-0.217 z"
         id="path40" />
      <path
         style="fill:#f49418;stroke:none"
         d="m 139.254,337.502 c -1.738,-0.346 -2.724,1.36 -2.751,1.386 -2.129,3.796 -2.268,4.44 -4.863,10.947 -0.435,1.241 -0.689,2.296 -0.37,3.529 0.416,1.212 2.166,1.681 2.999,1.388 1.325,-0.464 1.98,-1.538 2.941,-3.851 0,0 0.982,-2.524 1.921,-4.654 1.357,-3.082 1.904,-4.704 1.913,-6.678 0.061,-1.013 -0.987,-1.859 -1.79,-2.067 z"
         id="path42" />
      <path
         style="fill:#00977e;stroke:none"
         d="m 159.756,352.187 c -1.356,-1.146 -3.046,-0.133 -3.082,-0.127 -3.701,2.29 -4.134,2.784 -9.564,7.217 -0.983,0.87 -1.718,1.672 -2.032,2.903 -0.226,1.264 1.074,2.522 1.945,2.672 1.387,0.235 2.478,-0.389 4.439,-1.943 0,0 2.088,-1.729 3.94,-3.138 2.683,-2.035 3.948,-3.187 4.912,-4.911 0.547,-0.853 0.04,-2.105 -0.558,-2.673 z"
         id="path44" />
      <path
         style="fill:#0079b8;stroke:none"
         d="m 87.3267,355.391 c -0.7085,1.625 0.7456,2.955 0.7651,2.989 3.2524,2.893 3.853,3.166 9.6528,7.093 1.1187,0.691 2.0943,1.166 3.3674,1.115 1.274,-0.144 2.102,-1.754 2,-2.629 -0.171,-1.395 -1.082,-2.265 -3.134,-3.696 0,0 -2.2553,-1.505 -4.1347,-2.876 -2.7207,-1.986 -4.187,-2.867 -6.1119,-3.3 -0.9765,-0.278 -2.0293,0.568 -2.4047,1.304 z"
         id="path46" />
    </g>
  </g>
</svg>
